<?xml version="1.0" standalone="no"?>
<!DOCTYPE svg PUBLIC "-//W3C//DTD SVG 20010904//EN"
 "http://www.w3.org/TR/2001/REC-SVG-20010904/DTD/svg10.dtd">
<svg version="1.0" xmlns="http://www.w3.org/2000/svg"
 width="512.000000pt" height="512.000000pt" viewBox="0 0 512.000000 512.000000"
 preserveAspectRatio="xMidYMid meet">
<metadata>
Created by potrace 1.16, written by Peter Selinger 2001-2019
</metadata>
<g transform="translate(0.000000,512.000000) scale(0.100000,-0.100000)"
fill="#000000" stroke="none">
<path d="M757 5078 c-116 -122 -193 -451 -227 -963 -30 -442 41 -824 232
-1248 37 -84 62 -125 99 -162 37 -38 46 -54 38 -62 -26 -26 -12 -88 49 -221
79 -174 132 -265 211 -364 135 -169 345 -295 616 -371 92 -26 114 -35 108 -47
-15 -34 -15 -101 0 -124 20 -31 135 -97 327 -190 285 -137 506 -206 940 -291
360 -71 773 -167 763 -176 -17 -17 -238 -41 -403 -45 -96 -2 -181 -3 -188 -4
-8 0 -27 -13 -43 -29 -41 -41 -41 -101 -1 -141 37 -37 101 -45 291 -36 248 11
473 52 653 120 74 28 94 32 102 22 157 -194 281 -383 379 -576 37 -74 77 -143
88 -152 13 -11 38 -18 66 -18 36 0 50 6 74 29 46 46 40 84 -34 231 -105 207
-230 400 -378 584 -55 70 -62 83 -94 198 -128 461 -318 847 -575 1167 -136
169 -461 463 -578 522 -81 42 -169 7 -187 -73 -6 -24 -10 -18 -50 58 -98 187
-155 249 -295 319 -128 64 -388 183 -570 260 -264 112 -432 207 -602 337 -309
239 -577 595 -714 949 -35 90 -35 94 -24 155 14 72 58 172 96 217 22 26 25 38
21 76 -7 61 -41 91 -104 91 -41 0 -50 -5 -86 -42z m92 -1413 c105 -245 261
-492 408 -646 190 -198 384 -336 976 -693 125 -76 227 -139 225 -140 -2 0
-167 2 -368 6 -236 4 -443 13 -584 26 -206 19 -221 22 -237 44 -26 33 -112
198 -107 204 3 2 27 8 54 13 86 16 131 98 89 159 -9 12 -37 34 -63 49 -89 51
-187 121 -225 161 -45 46 -137 257 -192 438 -58 190 -96 437 -94 613 l0 76 38
-105 c20 -58 57 -150 80 -205z m203 180 c191 -233 491 -477 752 -611 l74 -38
32 -126 c18 -69 52 -181 77 -249 24 -67 43 -125 41 -127 -8 -7 -347 223 -440
298 -217 176 -349 341 -483 608 -45 89 -125 279 -140 330 -9 31 -5 27 87 -85z
m1204 -815 c172 -76 433 -199 458 -216 59 -40 180 -262 249 -459 19 -55 38
-108 42 -118 4 -10 20 -24 36 -32 95 -50 193 40 223 203 l12 65 89 -76 c155
-129 149 -120 183 -297 36 -184 55 -323 50 -367 l-3 -32 -175 120 c-226 156
-472 311 -850 539 -168 101 -313 190 -322 198 -41 35 -145 287 -202 489 l-23
82 47 -19 c26 -10 110 -46 186 -80z m-537 -955 c112 -8 328 -15 480 -15 388 0
505 -21 670 -121 384 -234 837 -569 1096 -812 l80 -75 -250 59 c-137 32 -367
82 -510 110 -379 74 -558 121 -784 207 l-94 36 79 13 c178 30 254 76 254 155
0 60 -39 94 -116 103 -115 13 -430 66 -559 94 -279 62 -420 113 -561 204 -93
59 -99 70 -37 62 26 -3 140 -12 252 -20z m2041 -95 c109 -149 251 -405 320
-580 12 -30 31 -77 41 -104 l20 -49 -64 60 c-71 66 -226 198 -299 253 l-45 35
-7 140 c-3 77 -14 186 -24 243 -11 57 -16 99 -12 95 4 -4 36 -46 70 -93z"/>
</g>
</svg>
